# xmcd
#
# Track frame offsets: 
#        150
#        16191
#        25166
#        38463
#        49341
#        57363
#        66331
#        72316
#        82463
#        86333
#        96796
#        104403
#        112541
#        118048
#
# Disc length: 1821 seconds
#
# Revision: 0
# Processed by: cddbd v1.5.2PL0 Copyright (c) Steve Scherf et al.
# Submitted via: ExactAudioCopy v0.95b3
#
DISCID=b3071b0e
DTITLE=Tyrannosaurus Rex  - Prophets, Seers and Sages The Angels Of The 
DTITLE=Ages  FLAC
DYEAR=1900
DGENRE=
TTITLE0=Deboraarobed
TTITLE1=Stacey Grove
TTITLE2=Wind Quartets
TTITLE3=Conesuala
TTITLE4=Trelawny Lawn
TTITLE5=Aznageel The Mage
TTITLE6=The Friends
TTITLE7=Salamanda Palaganda
TTITLE8=Our Wonderful Brownskin Man
TTITLE9=O Harley (The Saltimbaques)
TTITLE10=Eastern Spell
TTITLE11=The Travelling Tragition
TTITLE12=Juniper Suction
TTITLE13=Scenescof Dynasty
EXTD=
EXTT0=
EXTT1=
EXTT2=
EXTT3=
EXTT4=
EXTT5=
EXTT6=
EXTT7=
EXTT8=
EXTT9=
EXTT10=
EXTT11=
EXTT12=
EXTT13=
PLAYORDER=
